<svg width="54" height="54" viewBox="0 0 54 54" fill="none" xmlns="http://www.w3.org/2000/svg">
<path fill-rule="evenodd" clip-rule="evenodd" d="M53.04 0H0V53.04H53.04V0ZM12.9803 7.74859C15.9692 6.2515 21.0225 4.42 26.5678 4.42C32.0104 4.42 36.9409 6.18428 39.9169 7.66509C39.967 7.68996 40.0164 7.71475 40.0652 7.73944C40.8671 8.14471 41.5188 8.52585 41.99 8.84L38.7745 13.5406L36.9568 14.4838C30.6997 17.6407 22.3087 17.6407 16.0516 14.4838L14.4509 13.8464L11.05 8.84C11.3651 8.63288 11.7594 8.39665 12.2237 8.14358C12.4584 8.01569 12.7109 7.8835 12.9803 7.74859V7.74859ZM15.0965 9.19304C16.2317 9.55036 17.4342 9.86181 18.6581 10.0876C21.3076 10.5765 23.9771 10.6492 26.2608 9.98853C29.163 9.14889 32.2099 8.46855 35.065 8.0655C32.6287 7.26344 29.6832 6.63 26.5678 6.63C22.0716 6.63 17.8975 7.9493 15.0965 9.19304V9.19304ZM37.9524 16.4568L38.2534 16.3049C48.5131 27.2672 59.5304 48.2979 26.5678 48.6164C-6.41736 48.9352 4.43003 27.6587 14.7699 16.3124L15.0561 16.4568C21.9393 19.9297 31.0691 19.9297 37.9524 16.4568V16.4568ZM24.629 24.31H28.411V26.078H32.193V29.614H24.629L24.4588 29.6281C24.2408 29.665 24.0436 29.7723 23.9016 29.9313C23.7596 30.0903 23.6817 30.2909 23.6817 30.498C23.6817 30.7052 23.7596 30.9057 23.9016 31.0646C24.0436 31.2236 24.2408 31.331 24.4588 31.3678L24.629 31.382H28.411L28.721 31.3908C29.9476 31.4634 31.0957 31.9797 31.922 32.8303C32.7482 33.6807 33.1878 34.7986 33.1475 35.9471C33.1071 37.0955 32.5901 38.184 31.706 38.9821C30.8217 39.7801 29.64 40.2248 28.411 40.222V41.99H24.629V40.222H20.847V36.686H28.411L28.5812 36.6718C28.7992 36.635 28.9964 36.5276 29.1384 36.3686C29.2804 36.2097 29.3583 36.0092 29.3583 35.802C29.3583 35.5949 29.2804 35.3943 29.1384 35.2353C28.9964 35.0763 28.7992 34.969 28.5812 34.9321L28.411 34.918H24.629L24.319 34.9091C23.0924 34.8365 21.9443 34.3203 21.118 33.4699C20.2918 32.6192 19.8522 31.5013 19.8925 30.3529C19.9329 29.2046 20.4499 28.1159 21.334 27.318C22.2183 26.5199 23.4 26.0752 24.629 26.078V24.31Z" fill="#333333"/>
</svg>
