<svg width="46" height="44" viewBox="0 0 46 44" fill="none" xmlns="http://www.w3.org/2000/svg">
<path d="M23.6037 19.8048C21.987 19.7886 20.4113 19.3177 19.0753 18.4512C17.7392 17.5848 16.7024 16.3616 16.0955 14.9357C15.4885 13.5099 15.3385 11.945 15.6643 10.4381C15.9902 8.93128 16.7773 7.54984 17.9266 6.46773C19.0758 5.38562 20.5359 4.65123 22.1229 4.35701C23.71 4.06279 25.353 4.22189 26.8452 4.81429C28.3374 5.40669 29.612 6.40591 30.5086 7.68613C31.4052 8.96635 31.8837 10.4703 31.8837 12.0087C31.8685 14.0862 30.9886 16.0731 29.4366 17.5344C27.8846 18.9957 25.7872 19.8121 23.6037 19.8048ZM23.6037 6.94813C22.5556 6.96431 21.5359 7.2748 20.6727 7.8406C19.8094 8.40641 19.1412 9.20231 18.7518 10.1283C18.3624 11.0543 18.2693 12.0692 18.4842 13.0454C18.699 14.0216 19.2123 14.9156 19.9594 15.6151C20.7066 16.3147 21.6544 16.7886 22.6837 16.9773C23.713 17.166 24.778 17.0611 25.7448 16.6758C26.7117 16.2905 27.5373 15.6419 28.118 14.8115C28.6987 13.9812 29.0086 13.0061 29.0087 12.0087C28.9936 10.6568 28.4165 9.36561 27.4037 8.41733C26.3909 7.46904 25.0247 6.94083 23.6037 6.94813V6.94813Z" fill="black"/>
<path d="M23.6037 19.8048C21.987 19.7886 20.4113 19.3177 19.0753 18.4512C17.7392 17.5848 16.7024 16.3616 16.0955 14.9357C15.4885 13.5099 15.3385 11.945 15.6643 10.4381C15.9902 8.93128 16.7773 7.54984 17.9266 6.46773C19.0758 5.38562 20.5359 4.65123 22.1229 4.35701C23.71 4.06279 25.353 4.22189 26.8452 4.81429C28.3374 5.40669 29.612 6.40591 30.5086 7.68613C31.4052 8.96635 31.8837 10.4703 31.8837 12.0087C31.8685 14.0862 30.9886 16.0731 29.4366 17.5344C27.8846 18.9957 25.7872 19.8121 23.6037 19.8048ZM23.6037 6.94813C22.5556 6.96431 21.5359 7.2748 20.6727 7.8406C19.8094 8.40641 19.1412 9.20231 18.7518 10.1283C18.3624 11.0543 18.2693 12.0692 18.4842 13.0454C18.699 14.0216 19.2123 14.9156 19.9594 15.6151C20.7066 16.3147 21.6544 16.7886 22.6837 16.9773C23.713 17.166 24.778 17.0611 25.7448 16.6758C26.7117 16.2905 27.5373 15.6419 28.118 14.8115C28.6987 13.9812 29.0086 13.0061 29.0087 12.0087C28.9936 10.6568 28.4165 9.36561 27.4037 8.41733C26.3909 7.46904 25.0247 6.94083 23.6037 6.94813V6.94813Z" fill="black"/>
<path d="M28.6206 21.6376C22.2446 20.5819 15.6808 21.5428 9.93312 24.373C9.52512 24.5886 9.18728 24.9067 8.95656 25.2927C8.72585 25.6787 8.61114 26.1176 8.62499 26.5614V31.4305C8.62499 31.7933 8.77644 32.1412 9.04603 32.3977C9.31561 32.6542 9.68124 32.7983 10.0625 32.7983C10.4437 32.7983 10.8094 32.6542 11.079 32.3977C11.3485 32.1412 11.5 31.7933 11.5 31.4305V26.7392C16.8298 24.1947 22.8907 23.3874 28.75 24.4414L28.6206 21.6376Z" fill="black"/>
<path d="M44.5625 27.5872H34.9312V25.563C34.9312 25.2002 34.7798 24.8523 34.5102 24.5958C34.2406 24.3393 33.875 24.1952 33.4937 24.1952C33.1125 24.1952 32.7469 24.3393 32.4773 24.5958C32.2077 24.8523 32.0562 25.2002 32.0562 25.563V27.5872H21.5625C21.1813 27.5872 20.8156 27.7313 20.546 27.9878C20.2764 28.2443 20.125 28.5922 20.125 28.9549V42.6323C20.125 42.995 20.2764 43.3429 20.546 43.5994C20.8156 43.8559 21.1813 44 21.5625 44H44.5625C44.9437 44 45.3094 43.8559 45.579 43.5994C45.8485 43.3429 46 42.995 46 42.6323V28.9549C46 28.5922 45.8485 28.2443 45.579 27.9878C45.3094 27.7313 44.9437 27.5872 44.5625 27.5872ZM43.125 41.2645H23V30.3227H32.0562V30.8834C32.0562 31.2462 32.2077 31.5941 32.4773 31.8506C32.7469 32.1071 33.1125 32.2512 33.4937 32.2512C33.875 32.2512 34.2406 32.1071 34.5102 31.8506C34.7798 31.5941 34.9312 31.2462 34.9312 30.8834V30.3227H43.125V41.2645Z" fill="black"/>
<path d="M28.4769 35.0003H37.0444V36.9151H28.4769V35.0003Z" fill="black"/>
<path d="M12.7075 14.2381C8.7277 14.3015 4.81691 15.2376 1.27937 16.9736C0.894646 17.167 0.57238 17.4562 0.347034 17.8103C0.121688 18.1644 0.00173484 18.5702 0 18.9842V23.2241C0 23.5869 0.15145 23.9348 0.421034 24.1913C0.690617 24.4478 1.05625 24.5919 1.4375 24.5919C1.81875 24.5919 2.18438 24.4478 2.45397 24.1913C2.72355 23.9348 2.875 23.5869 2.875 23.2241V19.2577C6.25499 17.657 9.99718 16.8725 13.7712 16.9736C13.2775 16.1164 12.919 15.1947 12.7075 14.2381V14.2381Z" fill="black"/>
<path d="M44.7207 16.9599C41.5479 15.3764 38.061 14.4445 34.4857 14.2245C34.2751 15.1793 33.9217 16.1005 33.4363 16.9599C36.8044 17.0366 40.1131 17.8213 43.125 19.2577V23.2241C43.125 23.5869 43.2765 23.9348 43.5461 24.1913C43.8156 24.4478 44.1813 24.5919 44.5625 24.5919C44.9438 24.5919 45.3094 24.4478 45.579 24.1913C45.8486 23.9348 46 23.5869 46 23.2241V18.9842C46.0009 18.5679 45.8822 18.1593 45.6567 17.8025C45.4312 17.4457 45.1075 17.1544 44.7207 16.9599V16.9599Z" fill="black"/>
<path d="M12.4487 12.0087C12.4487 11.6942 12.4487 11.3933 12.4487 11.0924C11.3226 10.949 10.298 10.3979 9.58821 9.5538C8.87841 8.70971 8.5381 7.63768 8.63812 6.56087C8.73814 5.48406 9.27079 4.48544 10.1252 3.77289C10.9796 3.06034 12.0899 2.68877 13.225 2.73552C14.4056 2.73349 15.5404 3.17028 16.3875 3.9528C17.1348 3.36629 17.9557 2.87013 18.8312 2.47565C17.8532 1.40562 16.5573 0.64267 15.1144 0.287377C13.6715 -0.0679169 12.1494 0.00111845 10.7485 0.485384C9.34769 0.969649 8.13397 1.84641 7.26731 3.00011C6.40066 4.15382 5.92176 5.5303 5.89374 6.94814C5.9239 8.68345 6.6329 10.3457 7.88223 11.6103C9.13157 12.8749 10.8315 13.6509 12.65 13.7868C12.528 13.2009 12.4607 12.6059 12.4487 12.0087V12.0087Z" fill="black"/>
<path d="M32.7318 5.48135e-05C31.744 0.000261733 30.7661 0.187853 29.8553 0.551859C28.9445 0.915866 28.1192 1.44898 27.4275 2.12004C28.3993 2.45509 29.3182 2.91528 30.1587 3.48777C30.8298 3.04453 31.6147 2.78289 32.4298 2.73074C33.2449 2.6786 34.0596 2.83791 34.787 3.19169C35.5145 3.54546 36.1273 4.08044 36.5603 4.73958C36.9933 5.39872 37.2301 6.15731 37.2456 6.93446C37.2365 7.73272 36.9901 8.51221 36.5347 9.18271C36.0793 9.8532 35.4336 10.3873 34.6725 10.7231C34.7303 11.1448 34.7591 11.5697 34.7587 11.9951C34.7549 12.5448 34.7068 13.0935 34.615 13.6363C36.181 13.2533 37.5699 12.3884 38.5657 11.1763C39.5614 9.96418 40.1081 8.47286 40.1206 6.93446C40.1016 5.08433 39.3139 3.31654 37.9294 2.01724C36.545 0.717939 34.6764 -0.00726067 32.7318 5.48135e-05V5.48135e-05Z" fill="black"/>
</svg>
