<svg width="54" height="38" viewBox="0 0 54 38" fill="none" xmlns="http://www.w3.org/2000/svg">
<path d="M7.956 15.912C10.8815 15.912 13.26 13.5335 13.26 10.608C13.26 7.68251 10.8815 5.304 7.956 5.304C5.03051 5.304 2.652 7.68251 2.652 10.608C2.652 13.5335 5.03051 15.912 7.956 15.912ZM45.084 15.912C48.0095 15.912 50.388 13.5335 50.388 10.608C50.388 7.68251 48.0095 5.304 45.084 5.304C42.1585 5.304 39.78 7.68251 39.78 10.608C39.78 13.5335 42.1585 15.912 45.084 15.912ZM47.736 18.564H42.432C40.9734 18.564 39.6557 19.1524 38.6943 20.1055C42.0342 21.937 44.4044 25.2437 44.9182 29.172H50.388C51.8549 29.172 53.04 27.9869 53.04 26.52V23.868C53.04 20.9425 50.6615 18.564 47.736 18.564ZM26.52 18.564C31.65 18.564 35.802 14.412 35.802 9.282C35.802 4.15204 31.65 0 26.52 0C21.39 0 17.238 4.15204 17.238 9.282C17.238 14.412 21.39 18.564 26.52 18.564ZM32.8848 21.216H32.1969C30.4731 22.0447 28.5587 22.542 26.52 22.542C24.4813 22.542 22.5751 22.0447 20.8431 21.216H20.1552C14.8843 21.216 10.608 25.4924 10.608 30.7632V33.15C10.608 35.3462 12.3898 37.128 14.586 37.128H38.454C40.6502 37.128 42.432 35.3462 42.432 33.15V30.7632C42.432 25.4924 38.1556 21.216 32.8848 21.216ZM14.3457 20.1055C13.3843 19.1524 12.0666 18.564 10.608 18.564H5.304C2.37851 18.564 0 20.9425 0 23.868V26.52C0 27.9869 1.18511 29.172 2.652 29.172H8.11346C8.63557 25.2437 11.0058 21.937 14.3457 20.1055Z" fill="black"/>
</svg>
