<svg width="54" height="48" viewBox="0 0 54 48" fill="none" xmlns="http://www.w3.org/2000/svg">
<path d="M37.1278 34.4764L46.4098 34.4765V30.4984L53.04 37.1284L46.4098 43.7585V39.7806L37.1278 39.7805V34.4764ZM6.62995 47.7365V23.8683L3.97802 26.5203L0 19.8903L25.1942 0L34.4764 7.328V2.32047L39.7804 1.32596V11.5154L50.3885 19.8903L46.4104 26.5203L43.7585 23.8683V33.1504H39.7804V21.2162L25.1942 9.1717L10.6081 21.2162V43.7585L25.1932 43.7587V27.8468H35.8015L35.8017 43.7587L39.7804 43.7585V41.1065H43.7585V47.7365H6.62995ZM14.5859 27.8463H21.2162V35.8025H14.5859V27.8463Z" fill="black"/>
</svg>
