<svg width="57" height="55" viewBox="0 0 57 55" fill="none" xmlns="http://www.w3.org/2000/svg">
<path d="M31.5471 21.2923C34.1364 28.6171 36.1097 39.2454 34.684 53.6382" stroke="black" stroke-width="2.1335" stroke-linecap="round" stroke-linejoin="round"/>
<path d="M27.54 16.8902C25.0817 12.3161 18.6433 10.9972 13.1596 13.9445C7.67585 16.8917 5.22328 22.9889 7.68161 27.563C9.61414 25.5118 11.8032 23.6968 14.1745 22.1579" stroke="black" stroke-width="2.1335" stroke-linecap="round" stroke-linejoin="round"/>
<path d="M49.0991 6.98593C46.8964 2.28326 40.5406 0.611665 34.9027 3.2523C31.3307 4.92529 28.9041 7.92798 28.1654 11.0999C27.7381 12.9342 27.8756 14.8253 28.6827 16.5485" stroke="black" stroke-width="2.1335" stroke-linecap="round" stroke-linejoin="round"/>
<path d="M28.6752 16.8187C26.1796 15.8788 23.3948 16.6473 21.2898 18.5752C20.1872 19.585 19.271 20.913 18.6808 22.4802C16.9638 27.039 18.6546 31.8958 22.4572 33.3281C22.6851 27.3631 24.9114 21.4518 28.6752 16.8187Z" stroke="black" stroke-width="2.1335" stroke-linecap="round" stroke-linejoin="round"/>
<path d="M54.7229 23.8841C56.3222 17.8101 51.7155 11.332 44.4337 9.41471C43.3053 9.11762 42.1788 8.94747 41.0748 8.89467C35.0549 8.60675 29.7044 11.8084 28.353 16.9411C37.5606 16.3455 47.0025 18.8316 54.7229 23.8841Z" stroke="black" stroke-width="2.1335" stroke-linecap="round" stroke-linejoin="round"/>
<path d="M25.3706 6.96395C25.2767 6.87328 25.1811 6.78335 25.0838 6.69439C23.1895 4.96198 20.6453 3.5512 17.7427 2.83435C10.4323 1.02876 3.33696 4.90726 2 11.0443C4.44446 10.7804 6.91495 10.7344 9.37413 10.8981" stroke="black" stroke-width="2.1335" stroke-linecap="round" stroke-linejoin="round"/>
<path d="M49.0991 6.98593L47.5728 6.8528" stroke="black" stroke-width="2.1335" stroke-linecap="round" stroke-linejoin="round"/>
</svg>
